<?xml version="1.0" encoding="utf-8" ?>
<svg baseProfile="full" height="24px" version="1.1" viewBox="0 0 512 512" width="24px" xmlns="http://www.w3.org/2000/svg" xmlns:ev="http://www.w3.org/2001/xml-events" xmlns:xlink="http://www.w3.org/1999/xlink"><defs /><path fill="#38bdf8" d="M 61,31 L 61,120 L 60,121 L 31,121 L 31,180 L 60,180 L 61,181 L 61,270 L 60,271 L 0,271 L 0,420 L 60,420 L 61,421 L 61,480 L 180,480 L 180,391 L 181,390 L 210,390 L 211,391 L 211,480 L 474,480 L 511,443 L 511,248 L 474,211 L 211,211 L 211,300 L 210,301 L 181,301 L 180,300 L 180,181 L 181,180 L 210,180 L 210,121 L 181,121 L 180,120 L 180,31 Z" stroke-width="2" /></svg>
