<?xml version="1.0" encoding="UTF-8"?><svg id="Camada_1" xmlns="http://www.w3.org/2000/svg" viewBox="0 0 404.7 500"><defs><style>.cls-1,.cls-2{fill:#fff;}.cls-2{fill-rule:evenodd;}</style></defs><path class="cls-1" d="M343.19,416.42c-10.44,34.36-32.64,63.95-62.71,83.58,14.18-14.71,24.57-32.65,30.29-52.26,9.85-36.67,3.89-75.49-27.58-128.96-23.15-39.35-80.84-111.87-80.84-111.87,0,0-57.68,72.52-80.84,111.87-31.46,53.51-37.42,92.29-27.58,128.96,5.72,19.61,16.11,37.55,30.29,52.26-30.07-19.63-52.27-49.22-62.71-83.58-12.66-45.2-5.03-93.07,35.39-158.96,29.72-48.52,105.45-140.05,105.45-140.05,0,0,17.84,21.76,39.85,49.62,23.05,29.36,50.34,65.57,65.6,90.43,40.42,65.89,48.05,113.76,35.39,158.96Z"/><polygon class="cls-2" points="202.35 342.36 215.26 496.25 189.47 496.25 202.35 342.36"/><path class="cls-1" d="M396.98,413.17c-9.38,30.96-25.73,59.36-47.8,83.01,13.49-17.83,23.67-37.94,30.07-59.36,15.91-56.79,6.31-116.9-44.45-199.77-25.83-42.09-79.3-110.09-109.8-147.87-13.63-16.91-22.65-27.83-22.65-27.83,0,0-95.14,114.83-132.46,175.76C19.13,319.92,9.53,380.03,25.44,436.89c6.4,21.42,16.59,41.53,30.07,59.36-22.07-23.65-38.42-52.05-47.8-83.01C-9.77,350.78,.79,284.82,56.62,193.6,97.68,126.5,202.35,0,202.35,0c0,0,20.58,24.97,47.09,58.4,33.21,42.09,75.77,97.82,98.64,135.13,55.83,91.07,66.39,157.18,48.91,219.64Z"/></svg>