<?xml version="1.0" encoding="UTF-8"?><svg id="Camada_1" xmlns="http://www.w3.org/2000/svg" viewBox="0 0 2095.32 500"><defs><style>.cls-1,.cls-2{fill:#fff;}.cls-2{fill-rule:evenodd;}</style></defs><path class="cls-1" d="M244.26,296.38c-7.43,24.46-23.23,45.52-44.64,59.49,10.09-10.47,17.49-23.24,21.56-37.2,7.01-26.1,2.77-53.73-19.63-91.79-16.48-28.01-57.53-79.62-57.53-79.62,0,0-41.06,51.62-57.53,79.62-22.39,38.09-26.63,65.68-19.63,91.79,4.07,13.96,11.47,26.72,21.56,37.2-21.4-13.97-37.21-35.03-44.64-59.49-9.01-32.17-3.58-66.24,25.19-113.14,21.15-34.53,75.05-99.68,75.05-99.68,0,0,12.7,15.49,28.36,35.32,16.4,20.9,35.83,46.67,46.69,64.36,28.77,46.9,34.2,80.97,25.19,113.14Z"/><polygon class="cls-2" points="144.02 243.67 153.21 353.2 134.85 353.2 144.02 243.67"/><g><path class="cls-1" d="M429.45,348.32h-49.88V56.39h49.88V348.32Z"/><path class="cls-1" d="M606.52,184.85c-5.7-4.48-13.91-6.72-24.63-6.72-13.98,0-25.65,6.31-35.02,18.93-9.37,12.62-14.05,29.79-14.05,51.5v99.75h-47.23V139.86h47.23v42.96h.81c4.61-14.66,11.71-26.09,21.27-34.3,9.57-8.21,20.26-12.32,32.06-12.32,8.55,0,15.07,1.29,19.54,3.87v44.79Z"/><path class="cls-1" d="M750.4,184.85c-5.7-4.48-13.91-6.72-24.63-6.72-13.98,0-25.65,6.31-35.02,18.93-9.37,12.62-14.05,29.79-14.05,51.5v99.75h-47.23V139.86h47.23v42.96h.81c4.61-14.66,11.71-26.09,21.27-34.3,9.57-8.21,20.26-12.32,32.06-12.32,8.55,0,15.07,1.29,19.54,3.87v44.79Z"/><path class="cls-1" d="M797.19,96.09c-7.74,0-14.35-2.51-19.85-7.53-5.5-5.02-8.25-11.4-8.25-19.14s2.75-14.18,8.25-19.34c5.49-5.15,12.11-7.74,19.85-7.74s14.79,2.58,20.36,7.74c5.56,5.16,8.35,11.6,8.35,19.34,0,7.33-2.78,13.61-8.35,18.83-5.57,5.22-12.35,7.84-20.36,7.84Zm23.41,252.23h-47.23V139.86h47.23v208.46Z"/><path class="cls-1" d="M1021.08,338.75c-16.69,9.64-36.44,14.45-59.24,14.45-30.94,0-55.92-9.67-74.92-29.01-19-19.34-28.5-44.41-28.5-75.22,0-34.33,10.21-61.92,30.64-82.75,20.43-20.83,47.74-31.25,81.94-31.25,19,0,35.76,3.33,50.28,9.98v43.97c-14.53-10.86-30-16.29-46.42-16.29-19.95,0-36.31,6.75-49.06,20.26-12.76,13.51-19.14,31.18-19.14,53.03s6.01,38.61,18.02,51.1c12.01,12.49,28.13,18.73,48.35,18.73,16.96,0,32.98-6.04,48.05-18.12v41.12Z"/><path class="cls-1" d="M1149.91,353.2c-32.17,0-57.85-9.73-77.06-29.21-19.2-19.47-28.8-45.3-28.8-77.46,0-35.02,10.01-62.36,30.03-82.04,20.02-19.67,46.99-29.52,80.92-29.52s57.95,9.57,76.14,28.71c18.18,19.14,27.28,45.67,27.28,79.6s-9.81,59.89-29.42,79.9c-19.61,20.02-45.98,30.03-79.09,30.03Zm2.24-180.57c-18.46,0-33.05,6.45-43.77,19.34-10.72,12.9-16.08,30.67-16.08,53.34s5.43,39.05,16.29,51.61c10.86,12.55,25.38,18.83,43.57,18.83s32.88-6.17,42.85-18.52c9.98-12.35,14.96-29.93,14.96-52.73s-4.99-40.64-14.96-53.13c-9.98-12.48-24.26-18.73-42.85-18.73Z"/><path class="cls-1" d="M1481.7,348.32h-47.23v-117.46c0-38.95-13.78-58.43-41.33-58.43-14.39,0-26.26,5.4-35.63,16.19-9.37,10.79-14.05,24.4-14.05,40.82v118.89h-47.43V139.86h47.43v34.61h.81c15.61-26.33,38.14-39.5,67.59-39.5,22.66,0,39.97,7.36,51.91,22.09,11.94,14.73,17.91,36,17.91,63.82v127.44Z"/><path class="cls-1" d="M1638.82,346.08c-9.23,4.61-21.38,6.92-36.44,6.92-40.45,0-60.67-19.4-60.67-58.22v-117.87h-34.81v-37.05h34.81v-48.25l47.23-13.44v61.69h49.88v37.05h-49.88v104.23c0,12.35,2.24,21.17,6.72,26.46,4.48,5.29,11.94,7.94,22.39,7.94,8.01,0,14.93-2.31,20.77-6.92v37.46Z"/><path class="cls-1" d="M1790.03,184.85c-5.7-4.48-13.91-6.72-24.63-6.72-13.98,0-25.65,6.31-35.02,18.93-9.37,12.62-14.05,29.79-14.05,51.5v99.75h-47.23V139.86h47.23v42.96h.81c4.61-14.66,11.71-26.09,21.27-34.3,9.57-8.21,20.26-12.32,32.06-12.32,8.55,0,15.07,1.29,19.54,3.87v44.79Z"/><path class="cls-1" d="M1901.76,353.2c-32.17,0-57.85-9.73-77.06-29.21-19.2-19.47-28.8-45.3-28.8-77.46,0-35.02,10.01-62.36,30.03-82.04,20.02-19.67,46.99-29.52,80.92-29.52s57.95,9.57,76.14,28.71c18.18,19.14,27.28,45.67,27.28,79.6s-9.81,59.89-29.42,79.9c-19.61,20.02-45.98,30.03-79.09,30.03Zm2.24-180.57c-18.46,0-33.05,6.45-43.77,19.34-10.72,12.9-16.08,30.67-16.08,53.34s5.43,39.05,16.29,51.61c10.86,12.55,25.38,18.83,43.57,18.83s32.88-6.17,42.85-18.52c9.98-12.35,14.96-29.93,14.96-52.73s-4.99-40.64-14.96-53.13c-9.98-12.48-24.26-18.73-42.85-18.73Z"/><path class="cls-1" d="M2095.32,348.32h-47.43V39.7h47.43V348.32Z"/></g><g><path class="cls-1" d="M935.48,498.79h-9.35l-7.63-20.19h-30.54l-7.18,20.19h-9.39l27.63-72.03h8.74l27.73,72.03Zm-19.74-27.78l-11.3-30.69c-.37-1-.74-2.61-1.1-4.82h-.2c-.34,2.04-.72,3.65-1.16,4.82l-11.2,30.69h24.97Z"/><path class="cls-1" d="M969.12,498.79v-72.03h20.5c6.23,0,11.17,1.52,14.82,4.57s5.47,7.01,5.47,11.9c0,4.09-1.1,7.64-3.32,10.65-2.21,3.02-5.26,5.16-9.14,6.43v.2c4.85,.57,8.74,2.41,11.65,5.5,2.91,3.1,4.37,7.12,4.37,12.08,0,6.16-2.21,11.15-6.63,14.97-4.42,3.82-10,5.73-16.73,5.73h-21Zm8.44-64.4v23.26h8.64c4.62,0,8.25-1.11,10.9-3.34,2.65-2.23,3.97-5.37,3.97-9.42,0-7-4.6-10.5-13.82-10.5h-9.69Zm0,30.85v25.92h11.45c4.96,0,8.8-1.17,11.53-3.52,2.73-2.34,4.09-5.56,4.09-9.64,0-8.51-5.79-12.76-17.38-12.76h-9.69Z"/><path class="cls-1" d="M1081.28,498.79h-9.35l-7.63-20.19h-30.54l-7.18,20.19h-9.39l27.63-72.03h8.74l27.73,72.03Zm-19.74-27.78l-11.3-30.69c-.37-1-.74-2.61-1.1-4.82h-.2c-.34,2.04-.72,3.65-1.16,4.82l-11.2,30.69h24.97Z"/><path class="cls-1" d="M1139.99,469.66c0,20.23-9.13,30.34-27.38,30.34s-26.22-9.73-26.22-29.18v-44.06h8.44v43.5c0,14.77,6.23,22.15,18.69,22.15s18.03-7.13,18.03-21.4v-44.26h8.44v42.9Z"/><path class="cls-1" d="M1193.58,498.79h-38.18v-72.03h36.57v7.63h-28.13v23.96h26.02v7.58h-26.02v25.22h29.74v7.63Z"/><path class="cls-1" d="M1256.51,498.79h-10.04l-12.06-20.19c-1.1-1.88-2.18-3.47-3.21-4.8-1.04-1.32-2.1-2.4-3.19-3.24-1.09-.84-2.26-1.45-3.52-1.83-1.25-.38-2.67-.58-4.24-.58h-6.93v30.64h-8.44v-72.03h21.5c3.15,0,6.05,.39,8.72,1.18,2.66,.79,4.97,1.98,6.93,3.59,1.96,1.61,3.49,3.61,4.59,6,1.11,2.39,1.66,5.2,1.66,8.41,0,2.51-.38,4.82-1.13,6.91s-1.82,3.96-3.22,5.6c-1.39,1.64-3.06,3.04-5.02,4.19-1.96,1.16-4.16,2.05-6.61,2.69v.2c1.21,.54,2.25,1.15,3.14,1.83,.89,.69,1.73,1.5,2.54,2.43,.8,.94,1.6,2,2.39,3.19s1.67,2.57,2.64,4.14l13.51,21.65Zm-43.2-64.4v26.12h11.45c2.11,0,4.06-.32,5.85-.95,1.79-.63,3.34-1.55,4.65-2.74,1.3-1.19,2.33-2.64,3.06-4.37,.73-1.73,1.1-3.66,1.1-5.8,0-3.85-1.25-6.86-3.74-9.02s-6.1-3.24-10.83-3.24h-11.55Z"/><path class="cls-1" d="M1343.29,493.87c-7.24,4.09-15.27,6.13-24.11,6.13-10.28,0-18.59-3.32-24.94-9.95-6.35-6.63-9.52-15.41-9.52-26.32s3.53-20.3,10.58-27.45c7.05-7.15,15.98-10.72,26.8-10.72,7.84,0,14.42,1.27,19.74,3.82v9.34c-5.83-3.68-12.72-5.53-20.7-5.53s-14.68,2.78-19.84,8.34c-5.16,5.56-7.74,12.76-7.74,21.6s2.4,16.27,7.18,21.48c4.79,5.21,11.29,7.81,19.49,7.81,5.63,0,10.5-1.12,14.62-3.36v-20.2h-15.77v-7.63h24.21v32.65Z"/><path class="cls-1" d="M1409.09,498.79h-10.04l-12.06-20.19c-1.1-1.88-2.18-3.47-3.21-4.8-1.04-1.32-2.1-2.4-3.19-3.24-1.09-.84-2.26-1.45-3.52-1.83-1.25-.38-2.67-.58-4.24-.58h-6.93v30.64h-8.44v-72.03h21.5c3.15,0,6.05,.39,8.72,1.18,2.66,.79,4.97,1.98,6.93,3.59,1.96,1.61,3.49,3.61,4.59,6,1.11,2.39,1.66,5.2,1.66,8.41,0,2.51-.38,4.82-1.13,6.91s-1.82,3.96-3.22,5.6c-1.39,1.64-3.06,3.04-5.02,4.19-1.96,1.16-4.16,2.05-6.61,2.69v.2c1.21,.54,2.25,1.15,3.14,1.83,.89,.69,1.73,1.5,2.54,2.43,.8,.94,1.6,2,2.39,3.19s1.67,2.57,2.64,4.14l13.51,21.65Zm-43.2-64.4v26.12h11.45c2.11,0,4.06-.32,5.85-.95,1.79-.63,3.34-1.55,4.65-2.74,1.3-1.19,2.33-2.64,3.06-4.37,.73-1.73,1.1-3.66,1.1-5.8,0-3.85-1.25-6.86-3.74-9.02s-6.1-3.24-10.83-3.24h-11.55Z"/><path class="cls-1" d="M1444.44,500c-10.22,0-18.4-3.36-24.54-10.1-6.15-6.73-9.22-15.49-9.22-26.27,0-11.59,3.13-20.83,9.39-27.73,6.26-6.9,14.79-10.35,25.57-10.35,9.95,0,17.96,3.35,24.04,10.05,6.08,6.7,9.12,15.45,9.12,26.27,0,11.76-3.11,21.05-9.34,27.88-6.23,6.83-14.57,10.25-25.02,10.25Zm.6-66.81c-7.57,0-13.71,2.73-18.44,8.19-4.72,5.46-7.08,12.63-7.08,21.5s2.3,16.02,6.91,21.42c4.6,5.41,10.61,8.11,18.01,8.11,7.9,0,14.13-2.58,18.69-7.74s6.83-12.37,6.83-21.65-2.21-16.86-6.63-22.05c-4.42-5.19-10.52-7.79-18.28-7.79Z"/><path class="cls-1" d="M1543.09,469.66c0,20.23-9.13,30.34-27.38,30.34s-26.22-9.73-26.22-29.18v-44.06h8.44v43.5c0,14.77,6.23,22.15,18.69,22.15s18.03-7.13,18.03-21.4v-44.26h8.44v42.9Z"/><path class="cls-1" d="M1566.94,471.57v27.23h-8.44v-72.03h19.79c7.7,0,13.67,1.88,17.91,5.63,4.24,3.75,6.35,9.04,6.35,15.87s-2.35,12.42-7.06,16.78c-4.71,4.35-11.06,6.53-19.06,6.53h-9.49Zm0-37.17v29.54h8.84c5.83,0,10.27-1.33,13.34-3.99,3.06-2.66,4.6-6.42,4.6-11.28,0-9.51-5.63-14.27-16.88-14.27h-9.9Z"/><path class="cls-1" d="M1688.18,495.78c-5.33,2.81-11.96,4.22-19.89,4.22-10.25,0-18.45-3.3-24.61-9.9-6.16-6.6-9.24-15.25-9.24-25.97,0-11.52,3.47-20.83,10.4-27.93,6.93-7.1,15.72-10.65,26.37-10.65,6.83,0,12.49,.99,16.98,2.96v8.99c-5.16-2.88-10.85-4.32-17.08-4.32-8.27,0-14.98,2.76-20.12,8.29-5.14,5.53-7.71,12.91-7.71,22.15s2.4,15.77,7.21,20.97c4.81,5.21,11.11,7.81,18.91,7.81,7.23,0,13.5-1.61,18.79-4.82v8.19Z"/><path class="cls-1" d="M1726.56,500c-10.22,0-18.4-3.36-24.54-10.1-6.15-6.73-9.22-15.49-9.22-26.27,0-11.59,3.13-20.83,9.39-27.73,6.26-6.9,14.79-10.35,25.57-10.35,9.95,0,17.96,3.35,24.04,10.05,6.08,6.7,9.12,15.45,9.12,26.27,0,11.76-3.11,21.05-9.34,27.88-6.23,6.83-14.57,10.25-25.02,10.25Zm.6-66.81c-7.57,0-13.71,2.73-18.44,8.19-4.72,5.46-7.08,12.63-7.08,21.5s2.3,16.02,6.91,21.42c4.6,5.41,10.61,8.11,18.01,8.11,7.9,0,14.13-2.58,18.69-7.74,4.55-5.16,6.83-12.37,6.83-21.65s-2.21-16.86-6.63-22.05c-4.42-5.19-10.52-7.79-18.28-7.79Z"/><path class="cls-1" d="M1845.95,498.79h-8.39v-48.33c0-3.82,.23-8.49,.7-14.01h-.2c-.8,3.25-1.52,5.58-2.16,6.98l-24.61,55.36h-4.12l-24.56-54.96c-.7-1.61-1.42-4.07-2.16-7.38h-.2c.27,2.88,.4,7.58,.4,14.12v48.22h-8.14v-72.03h11.15l22.1,50.23c1.71,3.85,2.81,6.73,3.32,8.64h.3c1.44-3.95,2.6-6.9,3.47-8.84l22.56-50.03h10.55v72.03Z"/><path class="cls-1" d="M1870.75,471.57v27.23h-8.44v-72.03h19.79c7.7,0,13.67,1.88,17.91,5.63,4.24,3.75,6.35,9.04,6.35,15.87s-2.35,12.42-7.06,16.78c-4.71,4.35-11.06,6.53-19.06,6.53h-9.49Zm0-37.17v29.54h8.84c5.83,0,10.27-1.33,13.34-3.99,3.06-2.66,4.6-6.42,4.6-11.28,0-9.51-5.63-14.27-16.88-14.27h-9.9Z"/><path class="cls-1" d="M1966.09,498.79h-9.35l-7.63-20.19h-30.54l-7.18,20.19h-9.39l27.63-72.03h8.74l27.73,72.03Zm-19.74-27.78l-11.3-30.69c-.37-1-.74-2.61-1.1-4.82h-.2c-.34,2.04-.72,3.65-1.16,4.82l-11.2,30.69h24.97Z"/><path class="cls-1" d="M2032.19,498.79h-10.35l-37.07-57.42c-.94-1.44-1.71-2.95-2.31-4.52h-.3c.27,1.54,.4,4.84,.4,9.9v52.04h-8.44v-72.03h10.95l36.07,56.51c1.51,2.34,2.48,3.95,2.91,4.82h.2c-.34-2.08-.5-5.61-.5-10.6v-50.74h8.44v72.03Z"/><path class="cls-1" d="M2095.32,426.76l-23.76,45.41v26.62h-8.44v-26.42l-23.16-45.61h9.59l16.12,32.55c.2,.4,.79,1.88,1.76,4.42h.15c.33-1.14,.97-2.61,1.91-4.42l16.88-32.55h8.94Z"/></g><path class="cls-1" d="M282.55,294.07c-6.67,22.04-18.31,42.25-34.02,59.08,9.6-12.69,16.85-27,21.4-42.25,11.32-40.42,4.49-83.2-31.64-142.19-18.38-29.96-56.44-78.35-78.15-105.24-9.7-12.03-16.12-19.8-16.12-19.8,0,0-67.72,81.73-94.27,125.1C13.62,227.7,6.79,270.48,18.11,310.95c4.56,15.25,11.81,29.56,21.4,42.25-15.71-16.83-27.35-37.05-34.02-59.08C-6.95,249.66,.56,202.72,40.3,137.79,69.52,90.03,144.02,0,144.02,0,144.02,0,158.67,17.77,177.53,41.56c23.64,29.96,53.93,69.62,70.2,96.18,39.74,64.82,47.25,111.87,34.81,156.33Z"/></svg>